# xmcd
#
# Track frame offsets:
#	150
#	15173
#	29712
#	48561
#	64244
#	80423
#	100344
#	117825
#	131621
#	144808
#
# Disc length: 2246 seconds
#
# Revision: 0
# Processed by: cddbd v1.5.1PL0 Copyright (c) Steve Scherf et al.
# Submitted via: dBpowerAMP V4.0
#
DISCID=8008c40a
DTITLE=Gretchen Wilson - Here for the Party
DYEAR=1900
DGENRE=Country
TTITLE0=01 - Here For The Party
TTITLE1=02 - Redneck Woman
TTITLE2=03 - When I Think About Cheatin'
TTITLE3=04 - Homewrecker
TTITLE4=05 - Holdin' You
TTITLE5=06 - Chariot
TTITLE6=07 - What Happened
TTITLE7=08 - When it Rains
TTITLE8=09 - The Bed
TTITLE9=10 - Pocahontas Proud
EXTD=
EXTT0=
EXTT1=
EXTT2=
EXTT3=
EXTT4=
EXTT5=
EXTT6=
EXTT7=
EXTT8=
EXTT9=
PLAYORDER=
